<?xml version="1.0" encoding="utf-8"?>
<!-- Generator: Adobe Illustrator 21.0.2, SVG Export Plug-In . SVG Version: 6.00 Build 0)  -->
<svg version="1.1" id="Capa_1" xmlns="http://www.w3.org/2000/svg" xmlns:xlink="http://www.w3.org/1999/xlink" x="0px" y="0px"
	 viewBox="0 0 46 46" style="enable-background:new 0 0 46 46;" xml:space="preserve">
<style type="text/css">
	.st0{fill:#FFFFFF;}
</style>
<g>
	<g>
		<path d="M35.8,0H10.2C4.6,0,0,4.6,0,10.2v25.6C0,41.4,4.6,46,10.2,46h25.6C41.4,46,46,41.4,46,35.8V10.2C46,4.6,41.4,0,35.8,0z
			 M40,35.8c0,2.3-1.9,4.2-4.2,4.2H10.2C7.9,40,6,38.1,6,35.8V10.2C6,7.9,7.9,6,10.2,6h25.6c2.3,0,4.2,1.9,4.2,4.2V35.8z"/>
		<g>
			<path class="st0" d="M21.9,33.3c-0.6,0.6-1.4,1-2.3,1s-1.7-0.3-2.3-1l-7.1-7.1c-1.3-1.3-1.3-3.3,0-4.6c1.3-1.3,3.3-1.3,4.6,0
				l4.2,4.2c0.3,0.3,0.8,0.3,1.2,0l11.5-11.5c1.3-1.3,3.3-1.3,4.6,0s1.3,3.3,0,4.6L21.9,33.3z"/>
		</g>
	</g>
</g>
</svg>
